<svg width="24" height="25" viewBox="0 0 24 25" fill="none" xmlns="http://www.w3.org/2000/svg">
<g clip-path="url(#clip0_106_13)">
<path d="M12 16.7454C13.933 16.7454 15.5 15.1784 15.5 13.2454C15.5 11.3124 13.933 9.74542 12 9.74542C10.067 9.74542 8.5 11.3124 8.5 13.2454C8.5 15.1784 10.067 16.7454 12 16.7454Z" fill="#4285F4"/>
<path d="M20 9.22667V14.2454V17.2267C20 17.4379 19.9575 17.6379 19.8975 17.8292C19.7012 18.4442 19.2188 18.9267 18.6038 19.1229C18.4125 19.1842 18.2125 19.2254 18.0012 19.2254H8.25L10.25 21.2254H16.5H18C18.5525 21.2254 19.0788 21.1129 19.5575 20.9117C20.0363 20.7092 20.4675 20.4167 20.8288 20.0542C21.01 19.8729 21.1737 19.6754 21.3175 19.4617C21.605 19.0367 21.8125 18.5517 21.9188 18.0317C21.9725 17.7717 22 17.5017 22 17.2254V15.7254V12.2454V10.7267L21.25 8.35167L19.8975 8.62417C19.9575 8.81542 20 9.01542 20 9.22667Z" fill="#EA4335"/>
<path d="M4 9.22667C4 9.01542 4.0425 8.81542 4.1025 8.62417C4.29875 8.00917 4.78125 7.52667 5.39625 7.33042C5.58875 7.26917 5.78875 7.22667 6 7.22667H18C18.2113 7.22667 18.4113 7.26917 18.6025 7.32917L18.625 5.85167L16.5 5.22667L14.5 3.22667H12.82H12H11.18H9.5L7.5 5.22667H6C3.79125 5.22667 2 7.01792 2 9.22667V10.7267V13.2267L4 15.2267V9.22667Z" fill="#4285F4"/>
<path d="M18 5.22667H16.5L18.6038 7.33042C18.7575 7.37917 18.9025 7.44667 19.0375 7.52917C19.3075 7.69417 19.5337 7.92042 19.6987 8.19042C19.7812 8.32542 19.8487 8.47042 19.8975 8.62417L22 10.7267V9.22667C22 7.01792 20.2088 5.22667 18 5.22667Z" fill="#34A853"/>
<path d="M6 21.2267H10.9862L8.98625 19.2267H6C4.8975 19.2267 4 18.3292 4 17.2267V14.2404L2 12.2404V17.2267C2 19.4354 3.79125 21.2267 6 21.2267Z" fill="#FBBC04"/>
</g>
<defs>
<clipPath id="clip0_106_13">
<rect width="24" height="24" fill="white" transform="translate(0 0.226669)"/>
</clipPath>
</defs>
</svg>
