<svg width="20" height="21" viewBox="0 0 20 21" fill="none" xmlns="http://www.w3.org/2000/svg">
<g clip-path="url(#clip0_106_4)">
<path d="M12.9167 11.8933H12.2584L12.025 11.6683C13.025 10.5017 13.5417 8.91 13.2584 7.21834C12.8667 4.90167 10.9334 3.05167 8.60003 2.76834C5.07503 2.335 2.10837 5.30167 2.5417 8.82667C2.82503 11.16 4.67503 13.0933 6.9917 13.485C8.68337 13.7683 10.275 13.2517 11.4417 12.2517L11.6667 12.485V13.1433L15.2084 16.685C15.55 17.0267 16.1084 17.0267 16.45 16.685C16.7917 16.3433 16.7917 15.785 16.45 15.4433L12.9167 11.8933ZM7.9167 11.8933C5.8417 11.8933 4.1667 10.2183 4.1667 8.14334C4.1667 6.06834 5.8417 4.39334 7.9167 4.39334C9.9917 4.39334 11.6667 6.06834 11.6667 8.14334C11.6667 10.2183 9.9917 11.8933 7.9167 11.8933Z" fill="#9AA0A6"/>
</g>
<defs>
<clipPath id="clip0_106_4">
<rect width="20" height="20" fill="white" transform="translate(0 0.226669)"/>
</clipPath>
</defs>
</svg>
